<svg xmlns="http://www.w3.org/2000/svg" viewBox="0 0 512 512">
  <defs>
    <linearGradient id="bg" x1="0%" y1="0%" x2="100%" y2="100%">
      <stop offset="0%" style="stop-color:#f97316"/>
      <stop offset="100%" style="stop-color:#ea580c"/>
    </linearGradient>
  </defs>
  <!-- Background circle -->
  <circle cx="256" cy="256" r="256" fill="url(#bg)"/>
  <!-- Empanada shape - half moon -->
  <ellipse cx="256" cy="280" rx="160" ry="110" fill="#fef3c7" stroke="#d97706" stroke-width="8"/>
  <!-- Crimp marks on top of empanada -->
  <path d="M 116 240 Q 136 200, 166 220 Q 186 240, 206 210 Q 226 180, 256 210 Q 276 240, 306 210 Q 326 180, 346 210 Q 366 240, 396 220" fill="none" stroke="#d97706" stroke-width="8" stroke-linecap="round"/>
  <!-- Bottom half cover for empanada shape -->
  <rect x="96" y="280" width="320" height="120" fill="url(#bg)"/>
  <!-- Steam lines -->
  <path d="M 200 170 Q 195 140, 205 110" fill="none" stroke="white" stroke-width="6" stroke-linecap="round" opacity="0.7"/>
  <path d="M 256 155 Q 251 125, 261 95" fill="none" stroke="white" stroke-width="6" stroke-linecap="round" opacity="0.7"/>
  <path d="M 312 170 Q 307 140, 317 110" fill="none" stroke="white" stroke-width="6" stroke-linecap="round" opacity="0.7"/>
  <!-- Text -->
  <text x="256" y="370" text-anchor="middle" font-family="Arial, sans-serif" font-weight="bold" font-size="72" fill="white" letter-spacing="2">VENTAS</text>
</svg>
